<?xml version="1.0" standalone="no"?>
<!DOCTYPE svg PUBLIC "-//W3C//DTD SVG 20010904//EN"
 "http://www.w3.org/TR/2001/REC-SVG-20010904/DTD/svg10.dtd">
<svg version="1.0" xmlns="http://www.w3.org/2000/svg"
 width="948.000000pt" height="948.000000pt" viewBox="0 0 948.000000 948.000000"
 preserveAspectRatio="xMidYMid meet">
<metadata>
Created by potrace 1.14, written by Peter Selinger 2001-2017
</metadata>
<g transform="translate(0.000000,948.000000) scale(0.100000,-0.100000)"
fill="#000000" stroke="none">
<path d="M7274 7546 c-28 -13 -65 -41 -83 -62 -72 -88 -147 -295 -168 -469
-10 -73 -9 -1335 0 -1460 4 -49 9 -121 12 -160 6 -95 14 -207 20 -280 3 -33 7
-100 10 -150 9 -162 18 -262 30 -345 7 -47 17 -115 21 -135 3 -11 7 -36 10
-55 2 -19 7 -46 9 -60 3 -14 7 -38 10 -55 3 -16 7 -41 10 -55 3 -14 7 -37 10
-53 41 -221 86 -324 173 -394 26 -21 49 -40 52 -43 3 -3 39 -27 80 -53 95 -61
266 -144 510 -248 30 -13 97 -46 148 -72 51 -27 100 -46 108 -43 10 4 12 2 8
-6 -5 -8 -2 -9 9 -5 10 3 17 3 17 -2 0 -14 82 -32 155 -34 86 -2 189 24 285
73 158 81 316 265 398 467 23 56 42 107 42 112 0 32 91 146 231 292 30 30 64
67 77 81 l23 25 -73 44 c-40 24 -82 49 -93 55 -11 6 -81 47 -155 91 -222 132
-196 121 -220 92 -12 -13 -66 -71 -119 -129 -54 -58 -110 -119 -124 -136 -33
-39 -77 -122 -77 -145 0 -10 -5 -21 -10 -24 -6 -4 -8 -10 -6 -14 3 -4 -3 -23
-13 -42 -10 -19 -24 -52 -31 -74 -7 -22 -16 -42 -19 -45 -3 -3 -27 -37 -54
-76 -56 -85 -121 -153 -180 -191 -23 -15 -44 -30 -47 -33 -8 -8 -79 -37 -139
-56 -39 -12 -75 -15 -135 -12 -76 5 -99 11 -195 57 -31 15 -55 51 -67 100 -2
9 -12 49 -23 89 -10 40 -19 75 -19 77 0 5 -14 83 -17 95 -3 13 -16 88 -20 115
-2 17 -11 73 -19 125 -24 158 -32 225 -40 320 -8 88 -17 195 -22 255 -5 61
-12 167 -19 295 -25 455 -25 1477 -1 1550 2 8 7 38 10 65 6 68 52 220 82 275
35 64 85 119 114 127 14 4 48 6 77 6 41 0 58 -5 84 -27 31 -26 102 -111 126
-151 27 -44 87 -175 120 -260 19 -49 38 -97 42 -105 4 -8 16 -46 27 -83 l19
-68 110 -53 c241 -117 410 -199 416 -203 22 -11 -75 262 -148 417 -19 41 -36
80 -37 86 -5 28 -90 145 -153 209 -74 77 -140 133 -218 185 -27 19 -51 37 -53
42 -2 4 -7 8 -12 8 -7 0 -118 72 -166 107 -21 16 -50 34 -74 45 -14 7 -27 15
-30 18 -3 3 -25 15 -50 28 -25 12 -52 27 -60 32 -53 31 -197 86 -286 110 -96
26 -148 25 -210 -4z"/>
<path d="M4497 7220 c-70 -19 -126 -53 -154 -97 -33 -49 -42 -146 -37 -398 6
-359 14 -724 19 -870 2 -71 7 -209 10 -305 8 -239 13 -350 20 -482 3 -62 8
-153 11 -203 2 -49 6 -128 9 -175 15 -270 18 -457 19 -920 0 -283 -3 -614 -7
-735 l-7 -220 256 -130 c140 -71 259 -131 264 -133 5 -2 7 25 5 60 -3 35 -7
286 -10 558 -3 272 -7 603 -9 735 l-3 240 141 1 c77 0 195 4 261 8 66 5 140
10 165 11 110 7 181 18 270 40 77 20 159 43 166 48 5 3 26 8 47 11 31 5 37 3
38 -12 0 -9 2 -24 4 -33 3 -15 14 -185 21 -309 1 -36 6 -148 9 -250 3 -102 8
-205 9 -230 2 -25 6 -92 10 -150 4 -58 9 -114 11 -126 3 -15 67 -52 265 -150
l260 -131 -6 76 c-3 42 -7 96 -10 121 -2 25 -6 142 -9 260 -4 215 -11 367 -19
405 -2 11 -7 58 -11 105 -4 47 -9 94 -11 105 -2 11 -6 56 -10 100 -3 44 -7 96
-8 115 -2 19 -7 76 -11 125 -11 150 -32 303 -62 460 -3 17 -7 41 -9 55 -1 14
-3 25 -4 25 -1 0 -3 7 -5 15 -1 8 -8 40 -14 71 -6 30 -14 69 -17 85 -6 30 -7
34 -17 74 -4 14 -9 36 -11 50 -2 14 -9 43 -14 65 -6 22 -13 51 -16 65 -3 14
-8 36 -11 50 -3 14 -7 36 -10 50 -3 14 -7 36 -11 50 -17 72 -50 221 -58 260
-2 14 -14 68 -26 120 -12 52 -24 104 -26 115 -2 11 -8 40 -14 65 -7 25 -13 52
-15 60 -2 8 -13 56 -24 105 -12 50 -24 99 -26 110 -3 11 -9 31 -14 45 -5 14
-17 50 -26 80 -76 246 -212 417 -470 587 -91 61 -331 183 -357 183 -8 0 -18 3
-21 7 -17 16 -183 65 -267 77 -19 3 -46 8 -60 11 -14 4 -86 8 -160 9 -103 2
-151 -1 -203 -14z m733 -334 c87 -9 144 -23 148 -36 2 -6 15 -24 29 -40 14
-17 21 -30 17 -30 -4 0 0 -8 8 -17 8 -10 22 -34 30 -53 9 -19 26 -57 37 -83
30 -66 88 -245 107 -329 2 -10 6 -27 9 -39 2 -11 6 -28 9 -37 3 -9 8 -28 10
-42 3 -14 14 -63 26 -110 20 -87 58 -255 66 -300 3 -14 7 -33 10 -42 3 -9 6
-25 8 -35 6 -34 19 -98 22 -108 2 -5 5 -23 9 -40 3 -16 11 -52 17 -80 7 -27
13 -54 13 -60 1 -5 3 -12 4 -15 1 -3 4 -16 6 -30 2 -14 9 -47 15 -75 6 -27 14
-60 16 -72 2 -13 6 -33 9 -45 17 -79 25 -124 31 -166 3 -26 8 -50 10 -53 2 -4
6 -26 9 -50 3 -24 7 -55 10 -69 16 -82 17 -120 4 -121 -22 -1 -39 -5 -114 -27
-66 -20 -101 -27 -170 -36 -17 -2 -50 -9 -75 -16 -25 -7 -54 -14 -65 -16 -43
-9 -134 -33 -212 -57 -45 -14 -105 -28 -134 -32 -28 -4 -61 -8 -72 -11 -11 -2
-64 -6 -119 -10 l-99 -6 1 39 c0 21 -1 76 -4 123 -3 47 -8 132 -11 189 -3 57
-8 135 -10 175 -18 297 -28 1505 -13 1644 19 180 33 197 178 220 50 8 131 8
230 -2z"/>
<path d="M2655 7205 c-3 -14 -8 -37 -11 -52 -12 -57 -12 -54 -30 -298 -2 -33
-6 -87 -9 -120 -3 -33 -8 -91 -10 -130 -3 -38 -7 -81 -10 -95 -6 -35 -18 -158
-19 -197 -1 -18 -3 -33 -6 -33 -3 0 -6 -15 -6 -33 -1 -33 -11 -122 -19 -167
-2 -14 -7 -45 -10 -70 -3 -25 -11 -72 -16 -105 -5 -33 -12 -73 -14 -90 -11
-71 -15 -101 -20 -125 -3 -14 -7 -41 -9 -60 -2 -19 -7 -46 -10 -60 -3 -14 -8
-43 -11 -65 -3 -22 -8 -53 -10 -70 -3 -16 -7 -46 -10 -65 -4 -40 -14 -108 -21
-160 -3 -19 -7 -57 -10 -85 -9 -93 -30 -240 -34 -240 -1 0 -3 -16 -5 -35 -4
-40 -7 -58 -30 -172 -42 -209 -184 -641 -287 -868 -14 -30 -33 -74 -43 -97
-10 -24 -21 -43 -24 -43 -4 0 -14 17 -23 38 -26 55 -105 202 -119 218 -6 8 -8
14 -4 14 4 0 3 6 -3 13 -22 27 -202 380 -285 557 -14 30 -51 108 -81 173 -31
65 -56 120 -56 123 0 3 -12 31 -26 62 -55 120 -137 311 -168 392 -18 47 -37
94 -41 105 -5 11 -9 23 -10 28 -2 4 -4 9 -5 12 -1 3 -3 8 -4 13 -1 4 -12 37
-24 73 -12 36 -24 76 -27 89 -2 12 -11 46 -19 74 -14 49 -22 93 -31 166 -2 19
-6 53 -9 76 -5 40 -12 134 -21 284 -11 187 -59 282 -174 339 -31 16 -101 48
-156 72 -55 24 -133 60 -174 81 -41 21 -77 38 -81 38 -4 0 -21 -13 -37 -29
-35 -33 -62 -98 -107 -261 -28 -100 -36 -117 -59 -128 -44 -21 -60 -56 -63
-135 -4 -112 -14 -289 -19 -317 -2 -14 -7 -64 -10 -112 -3 -48 -8 -97 -10
-110 -3 -12 -7 -56 -10 -98 -4 -41 -8 -100 -11 -130 -7 -92 -21 -357 -29 -570
-2 -69 -7 -188 -10 -265 -2 -77 -7 -189 -10 -250 -18 -339 -31 -825 -40 -1455
-3 -162 -7 -379 -10 -482 l-4 -187 157 -79 c86 -44 205 -105 265 -135 86 -45
107 -53 108 -39 1 27 -3 204 -8 387 -13 464 -6 1497 12 1780 3 39 7 127 10
198 8 174 13 246 20 258 4 5 1 9 -5 9 -6 0 -9 4 -5 9 5 10 7 31 20 211 12 171
15 206 21 260 3 30 7 73 9 95 11 117 18 182 20 197 2 9 6 45 10 80 3 35 7 72
10 83 2 11 4 33 4 48 1 34 16 28 26 -10 3 -15 15 -46 26 -70 10 -23 19 -48 19
-55 0 -8 4 -18 9 -24 4 -5 23 -45 41 -89 18 -43 52 -122 76 -173 24 -52 44
-95 44 -97 0 -17 345 -714 460 -930 190 -355 322 -640 346 -746 19 -86 24
-282 10 -489 -3 -52 -8 -133 -11 -180 -9 -153 -14 -217 -20 -262 -4 -31 -2
-48 7 -54 7 -6 92 -45 188 -88 96 -43 207 -94 245 -113 108 -54 103 -56 121
41 3 16 7 33 9 36 2 4 7 20 9 36 3 16 8 40 11 54 16 77 34 211 41 295 5 69 11
144 19 230 14 158 88 384 225 682 51 110 159 394 176 462 2 9 18 63 34 121 17
58 34 116 36 129 3 14 7 28 9 31 2 4 14 49 25 101 31 137 33 147 45 222 3 17
7 43 10 57 7 39 13 80 20 145 3 33 8 74 10 90 6 49 18 158 19 182 2 22 15 44
17 27 2 -27 9 -60 33 -169 15 -66 31 -140 37 -165 6 -25 13 -56 15 -70 3 -14
10 -43 16 -65 5 -22 12 -51 15 -65 2 -14 9 -43 15 -65 13 -53 18 -74 24 -110
3 -16 9 -41 14 -55 7 -21 16 -60 36 -155 2 -11 22 -92 44 -180 23 -88 44 -173
46 -190 3 -16 11 -36 16 -42 6 -7 8 -13 5 -13 -13 0 95 -339 139 -437 8 -17
14 -33 14 -36 0 -3 16 -41 36 -84 43 -92 124 -283 128 -299 1 -7 6 -18 12 -25
5 -8 15 -25 22 -39 7 -14 27 -32 45 -40 18 -7 59 -26 92 -41 97 -44 140 -62
145 -63 3 -1 21 -9 40 -18 35 -16 84 -38 174 -77 27 -12 51 -20 53 -18 2 2 -5
15 -15 28 -21 27 -61 110 -87 179 -29 78 -49 125 -100 240 -21 47 -43 99 -50
115 -13 30 -75 202 -79 220 -2 6 -6 17 -9 25 -3 8 -15 49 -27 90 -12 41 -31
102 -41 135 -11 33 -21 69 -24 80 -3 11 -16 61 -30 110 -14 50 -30 108 -35
130 -5 22 -14 58 -20 80 -6 22 -13 49 -15 60 -2 11 -27 110 -55 220 -29 110
-53 205 -54 210 -2 6 -6 21 -9 35 -4 14 -16 66 -27 115 -12 50 -25 108 -31
130 -5 22 -12 50 -14 63 -3 12 -7 32 -10 45 -7 32 -15 69 -20 92 -2 11 -13 63
-25 115 -22 102 -24 114 -35 175 -4 22 -15 87 -25 145 -11 58 -22 125 -25 150
-3 25 -8 52 -11 61 -2 9 -6 40 -9 70 -2 30 -6 63 -9 74 -2 11 -7 47 -10 80 -4
33 -9 71 -11 85 -4 23 -11 105 -21 255 -2 33 -6 143 -8 245 -10 372 -16 470
-34 491 -9 10 -21 19 -27 19 -5 0 -46 22 -90 48 -72 44 -137 80 -346 194 l-69
38 -5 -25z"/>
</g>
</svg>
